<?xml version="1.0" standalone="no"?><!DOCTYPE svg PUBLIC "-//W3C//DTD SVG 1.1//EN" "http://www.w3.org/Graphics/SVG/1.1/DTD/svg11.dtd"><svg t="1697783673709" class="icon" viewBox="0 0 1024 1024" version="1.1" xmlns="http://www.w3.org/2000/svg" p-id="24283" xmlns:xlink="http://www.w3.org/1999/xlink" width="32" height="32"><path d="M518.633459 0.044503A505.361421 505.361421 0 1 1 13.272039 505.405924 505.361421 505.361421 0 0 1 518.633459 0.044503z" fill="#F6C344" opacity=".08" p-id="24284" data-spm-anchor-id="a313x.search_index.0.i63.47f93a81uccM9e" class="selected"></path><path d="M707.986461 38.915429a511.544537 511.544537 0 1 0 277.137493 277.137493 25.598887 25.598887 0 1 0-47.259484 19.691452A460.307379 460.307379 0 1 1 688.413157 86.293062a25.598887 25.598887 0 1 0 19.691452-47.259485zM318.371394 486.50213L527.73091 277.142613a25.598887 25.598887 0 0 0-36.192888-36.192888l-249.884525 249.884524a25.008144 25.008144 0 0 0-7.364603 17.958604 25.559505 25.559505 0 0 0 7.561518 17.997987l253.389603 253.428986a25.244441 25.244441 0 1 0 35.720293-35.720294l-207.154073-207.154074 449.989058 3.11125a24.811229 24.811229 0 0 0 25.244441-25.244441 25.795802 25.795802 0 0 0-25.598887-25.598888l-455.069453-3.150632z" fill="#F6C344" p-id="24285" data-spm-anchor-id="a313x.search_index.0.i64.47f93a81uccM9e" class="selected"></path></svg>